<?xml version="1.0" encoding="UTF-8" standalone="no"?>
<!DOCTYPE svg PUBLIC "-//W3C//DTD SVG 1.1//EN" "http://www.w3.org/Graphics/SVG/1.1/DTD/svg11.dtd">
<svg width="100%" height="100%" viewBox="0 0 305 305" version="1.1" xmlns="http://www.w3.org/2000/svg" xmlns:xlink="http://www.w3.org/1999/xlink" xml:space="preserve" xmlns:serif="http://www.serif.com/" style="fill-rule:evenodd;clip-rule:evenodd;stroke-linejoin:round;stroke-miterlimit:2;">
    <g id="XMLID_91_">
        <path id="XMLID_92_" d="M274.659,244.888C265.715,241.225 261.889,236.364 262.259,229.111C262.64,220.645 257.837,214.444 255.556,211.994C256.934,206.73 260.961,188.52 255.56,172.703C249.756,155.773 232.036,129.916 213.752,104.499C206.267,94.061 205.913,82.715 205.504,69.577C205.112,57.046 204.67,42.842 197.682,27.052C190.084,9.859 174.838,0 155.851,0C144.556,0 132.962,3.53 124.04,9.684C105.77,22.293 108.185,49.784 109.783,67.975C110.002,70.466 110.208,72.819 110.328,74.828C111.392,92.644 110.424,102.034 109.158,104.888C108.339,106.753 104.307,112.061 100.04,117.681C95.627,123.493 90.624,130.081 86.523,136.22C81.63,143.607 77.68,154.898 73.86,165.817C71.065,173.807 68.425,181.354 65.855,185.864C60.984,194.54 62.196,202.63 63.208,206.369C61.364,207.65 58.7,210.172 56.451,214.926C53.733,220.726 48.218,223.843 36.75,226.048C31.48,227.126 27.846,229.342 25.946,232.634C23.181,237.425 24.687,243.445 26.061,247.559C28.091,253.607 26.826,257.435 24.526,264.385C23.996,265.989 23.395,267.805 22.786,269.808C21.827,272.969 22.173,275.843 23.812,278.35C28.143,284.971 40.781,287.306 53.791,288.842C61.559,289.764 70.061,292.871 78.284,295.877C86.341,298.821 94.672,301.866 102.245,302.79C103.396,302.935 104.536,303.008 105.635,303.008C117.069,303.008 122.235,295.421 123.873,292.304C127.98,291.466 142.145,288.782 156.744,288.422C171.32,288.006 185.423,290.884 189.418,291.779C190.674,294.183 193.985,299.674 199.263,302.503C202.164,304.089 206.201,304.998 210.336,304.998L210.337,304.998C214.753,304.998 223.154,303.954 229.803,296.959C236.435,289.931 253.005,280.959 265.105,274.408C267.805,272.946 270.331,271.578 272.546,270.343C279.343,266.575 283.052,261.191 282.721,255.572C282.445,250.905 279.356,246.811 274.659,244.888ZM124.189,243.535C123.343,237.575 115.676,231.664 106.797,224.82C99.537,219.223 91.308,212.88 89.041,207.508C84.356,196.426 88.049,176.94 94.488,166.906C97.67,161.882 100.269,154.263 102.783,146.895C105.497,138.939 108.304,130.713 111.443,127.112C116.414,121.49 121.008,110.551 121.822,101.93C126.477,106.374 133.698,112.013 140.369,112.013C141.396,112.013 142.393,111.879 143.346,111.61C147.91,110.292 154.623,106.413 161.115,102.663C166.712,99.429 173.614,95.441 176.211,95.078C180.664,101.472 206.539,158.733 209.183,177.122C211.275,191.672 209.065,203.7 207.954,208.411C207.06,208.289 205.994,208.19 204.874,208.19C197.667,208.19 195.759,212.124 195.262,214.473C193.984,220.576 193.849,240.091 193.835,244.476C191.229,247.787 178.05,263.379 159.129,266.182C151.422,267.302 144.225,267.87 137.739,267.87C132.195,267.87 128.657,267.442 127.188,267.219L117.68,256.34C121.429,254.489 125.177,250.583 124.189,243.535ZM136.254,64.149C135.957,64.277 135.665,64.414 135.378,64.56C135.349,63.916 135.282,63.263 135.179,62.608C134.141,56.633 130.179,52.296 125.76,52.296C125.433,52.296 125.104,52.321 124.743,52.376C122.114,52.814 120.052,54.789 118.922,57.589C119.913,51.445 123.394,46.896 127.524,46.896C132.374,46.896 136.471,53.432 136.471,61.168C136.471,62.143 136.4,63.113 136.254,64.149ZM173.94,68.756C174.384,67.342 174.624,65.812 174.624,64.224C174.624,57.21 170.174,51.715 164.493,51.715C158.941,51.715 154.424,57.326 154.424,64.224C154.424,64.694 154.447,65.165 154.491,65.635C154.197,65.522 153.91,65.412 153.63,65.306C152.991,63.371 152.668,61.352 152.668,59.291C152.668,50.904 158.028,44.08 164.618,44.08C171.207,44.08 176.568,50.904 176.568,59.291C176.568,62.78 175.605,66.11 173.94,68.756ZM169.081,85.08C168.986,85.504 168.784,85.692 166.55,86.854C165.422,87.441 164.018,88.172 162.261,89.242L161.087,89.953C156.369,92.813 145.322,99.512 142.323,99.905C140.286,100.179 139.026,99.389 136.193,97.464C135.554,97.029 134.874,96.567 134.149,96.102C129.042,92.751 125.757,89.06 125.386,87.617C127.051,86.33 131.178,83.109 133.291,81.202C137.58,77.214 141.896,74.534 144.032,74.534C144.145,74.534 144.247,74.542 144.353,74.562C146.863,75.005 153.054,77.476 157.576,79.28C159.666,80.114 161.471,80.834 162.741,81.29C166.742,82.664 168.828,84.422 169.081,85.08ZM205.028,271.45C207.285,261.269 209.885,247.419 209.464,239.254C209.367,237.399 209.203,235.38 209.044,233.428C208.747,229.778 208.306,224.353 208.761,222.744C208.851,222.702 208.951,222.666 209.062,222.635C209.081,227.303 210.095,236.614 217.541,239.861C219.76,240.829 222.296,241.319 225.078,241.319C232.537,241.319 240.813,237.66 244.203,234.27C246.199,232.274 247.878,229.832 249.054,227.898C249.311,228.651 249.469,229.635 249.386,230.903C248.943,237.788 252.289,246.922 258.657,250.288L259.584,250.775C261.852,251.965 267.876,255.128 267.973,256.628C267.972,256.629 267.922,256.805 267.586,257.117C266.077,258.496 260.766,261.208 255.63,263.831C246.519,268.483 236.192,273.756 231.554,278.634C225.024,285.506 217.638,290.122 213.178,290.122C212.641,290.122 212.152,290.054 211.717,289.916C206.873,288.406 202.886,281.417 205.028,271.45ZM39.917,245.477C39.423,243.165 39.033,241.34 39.452,239.572C39.756,238.262 46.223,236.858 48.985,236.259C52.868,235.416 56.884,234.545 59.51,232.951C63.061,230.8 64.984,226.833 66.68,223.333C67.908,220.802 69.176,218.185 70.685,217.326C70.77,217.276 70.9,217.218 71.148,217.218C73.975,217.218 79.907,223.161 83.325,228.48C84.192,229.821 85.798,232.508 87.656,235.619C93.213,244.917 100.822,257.652 104.796,261.92C108.377,265.757 114.174,273.134 112.748,279.461C111.704,284.37 106.146,288.362 104.835,289.245C104.359,289.353 103.77,289.408 103.077,289.408C95.471,289.408 80.415,283.08 72.326,279.68L71.129,279.177C66.612,277.283 59.238,276.09 52.107,274.936C46.433,274.017 38.663,272.76 37.375,271.624C36.331,270.453 37.542,266.646 38.61,263.287C39.379,260.873 40.173,258.377 40.608,255.764C41.225,251.596 40.499,248.203 39.917,245.477Z" style="fill:rgb(110,126,151);fill-rule:nonzero;stroke:rgb(110,126,151);stroke-width:1px;"/>
    </g>
</svg>
