<?xml version="1.0" encoding="UTF-8" standalone="no"?>
<!DOCTYPE svg PUBLIC "-//W3C//DTD SVG 1.1//EN" "http://www.w3.org/Graphics/SVG/1.1/DTD/svg11.dtd">
<svg width="100%" height="100%" viewBox="0 0 60 84" version="1.1" xmlns="http://www.w3.org/2000/svg" xmlns:xlink="http://www.w3.org/1999/xlink" xml:space="preserve" xmlns:serif="http://www.serif.com/" style="fill-rule:evenodd;clip-rule:evenodd;stroke-linejoin:round;stroke-miterlimit:2;">
    <g transform="matrix(1,0,0,1,-0.635173,-0.311348)">
        <g transform="matrix(0.535588,0.309657,-9.07657e-17,1.94426,-69.4025,-440.088)">
            <path d="M160.809,208.518C160.809,207.167 157.825,206.071 154.15,206.071L140.034,206.071C136.8,206.071 134.174,207.036 134.174,208.224L134.174,230.257C134.174,231.608 137.158,232.705 140.833,232.705L154.15,232.705C157.825,232.705 160.809,231.608 160.809,230.257L160.809,208.518Z" style="fill:white;"/>
        </g>
        <g transform="matrix(0.535588,0.309657,-9.07657e-17,1.94426,-48.3595,-419.534)">
            <path d="M160.809,208.518C160.809,207.167 157.825,206.071 154.15,206.071L140.034,206.071C136.8,206.071 134.174,207.036 134.174,208.224L134.174,230.257C134.174,231.608 137.158,232.705 140.833,232.705L154.15,232.705C157.825,232.705 160.809,231.608 160.809,230.257L160.809,208.518Z" style="fill:white;"/>
        </g>
        <g transform="matrix(0.535588,0.309657,-9.07657e-17,1.94426,-27.3165,-419.532)">
            <path d="M160.809,208.518C160.809,207.167 157.825,206.071 154.15,206.071L140.034,206.071C136.8,206.071 134.174,207.036 134.174,208.224L134.174,230.257C134.174,231.608 137.158,232.705 140.833,232.705L154.15,232.705C157.825,232.705 160.809,231.608 160.809,230.257L160.809,208.518Z" style="fill:white;"/>
        </g>
    </g>
</svg>
