<?xml version="1.0" encoding="UTF-8" standalone="no"?>
<!DOCTYPE svg PUBLIC "-//W3C//DTD SVG 1.1//EN" "http://www.w3.org/Graphics/SVG/1.1/DTD/svg11.dtd">
<svg width="100%" height="100%" viewBox="0 0 60 84" version="1.1" xmlns="http://www.w3.org/2000/svg" xmlns:xlink="http://www.w3.org/1999/xlink" xml:space="preserve" xmlns:serif="http://www.serif.com/" style="fill-rule:evenodd;clip-rule:evenodd;stroke-linejoin:round;stroke-miterlimit:2;">
    <g transform="matrix(1,0,0,1,0.304481,-0.846161)">
        <g>
            <g transform="matrix(0.552409,0.319382,-9.36163e-17,2.00532,-73.4839,-454.703)">
                <path d="M160.809,208.518C160.809,207.167 157.825,206.071 154.15,206.071L140.034,206.071C136.8,206.071 134.174,207.036 134.174,208.224L134.174,230.257C134.174,231.608 137.158,232.705 140.833,232.705L154.15,232.705C157.825,232.705 160.809,231.608 160.809,230.257L160.809,208.518Z" style="fill:rgb(51,105,231);"/>
            </g>
            <g transform="matrix(0.552409,0.319382,-9.36163e-17,2.00532,-51.7801,-433.504)">
                <path d="M160.809,208.518C160.809,207.167 157.825,206.071 154.15,206.071L140.034,206.071C136.8,206.071 134.174,207.036 134.174,208.224L134.174,230.257C134.174,231.608 137.158,232.705 140.833,232.705L154.15,232.705C157.825,232.705 160.809,231.608 160.809,230.257L160.809,208.518Z" style="fill:rgb(51,105,231);"/>
            </g>
            <g transform="matrix(0.552409,0.319382,-9.36163e-17,2.00532,-30.0762,-433.502)">
                <path d="M160.809,208.518C160.809,207.167 157.825,206.071 154.15,206.071L140.034,206.071C136.8,206.071 134.174,207.036 134.174,208.224L134.174,230.257C134.174,231.608 137.158,232.705 140.833,232.705L154.15,232.705C157.825,232.705 160.809,231.608 160.809,230.257L160.809,208.518Z" style="fill:rgb(51,105,231);"/>
            </g>
        </g>
    </g>
</svg>
