<?xml version="1.0" encoding="UTF-8" standalone="no"?>
<!DOCTYPE svg PUBLIC "-//W3C//DTD SVG 1.1//EN" "http://www.w3.org/Graphics/SVG/1.1/DTD/svg11.dtd">
<svg width="100%" height="100%" viewBox="0 0 48 63" version="1.1" xmlns="http://www.w3.org/2000/svg" xmlns:xlink="http://www.w3.org/1999/xlink" xml:space="preserve" xmlns:serif="http://www.serif.com/" style="fill-rule:evenodd;clip-rule:evenodd;stroke-linejoin:round;stroke-miterlimit:2;">
    <g transform="matrix(1,0,0,1,-608.932,-718.951)">
        <g transform="matrix(1.5,0,0,1.5,0,0)">
            <g transform="matrix(0.666667,0,0,0.666667,666.591,-51.217)">
                <g transform="matrix(0.251834,0.000108934,5.79704e-22,0.543966,-738.076,729.354)">
                    <path d="M1404.09,137.891C1404.09,136.248 1401.21,134.914 1397.66,134.914C1387.02,134.914 1378.37,138.916 1378.37,143.845L1378.37,233.012C1378.37,234.655 1381.25,235.989 1384.8,235.989C1395.45,235.989 1404.09,231.987 1404.09,227.057L1404.09,137.891Z" style="fill:rgb(255,32,196);"/>
                </g>
                <g transform="matrix(0.251834,0.000108934,0,0.47236,-724.483,739.393)">
                    <path d="M1404.09,138.342C1404.09,136.45 1401.21,134.914 1397.66,134.914L1384.8,134.914C1381.25,134.914 1378.37,136.45 1378.37,138.342L1378.37,232.56C1378.37,234.453 1381.25,235.989 1384.8,235.989L1397.66,235.989C1401.21,235.989 1404.09,234.453 1404.09,232.56L1404.09,138.342Z" style="fill:rgb(239,0,255);"/>
                </g>
                <g transform="matrix(0.251834,0.000108934,0,0.47236,-710.89,738.771)">
                    <path d="M1404.09,138.342C1404.09,136.45 1401.21,134.914 1397.66,134.914L1384.8,134.914C1381.25,134.914 1378.37,136.45 1378.37,138.342L1378.37,232.56C1378.37,234.453 1381.25,235.989 1384.8,235.989L1397.66,235.989C1401.21,235.989 1404.09,234.453 1404.09,232.56L1404.09,138.342Z" style="fill:rgb(174,0,255);"/>
                </g>
                <g transform="matrix(0.251834,0.000108934,0,0.544124,-697.374,722.214)">
                    <path d="M1404.09,137.89C1404.09,136.247 1401.21,134.914 1397.66,134.914C1387.02,134.914 1378.37,138.914 1378.37,143.842L1378.37,233.013C1378.37,234.655 1381.25,235.989 1384.8,235.989C1395.45,235.989 1404.09,231.988 1404.09,227.06L1404.09,137.89Z" style="fill:rgb(125,0,255);"/>
                </g>
            </g>
        </g>
    </g>
</svg>
